<svg width="389" height="393" viewBox="0 0 389 393" fill="none" xmlns="http://www.w3.org/2000/svg">
    <path d="M144.915 143.034C175.844 143.034 200.917 117.961 200.917 87.0322C200.917 56.1033 175.844 31.0306 144.915 31.0306C113.986 31.0306 88.9133 56.1033 88.9133 87.0322C88.9133 117.961 113.986 143.034 144.915 143.034Z" fill="url(#paint0_radial_106_603)"/>
    <path d="M144.915 143.034C175.844 143.034 200.917 117.961 200.917 87.0322C200.917 56.1033 175.844 31.0306 144.915 31.0306C113.986 31.0306 88.9133 56.1033 88.9133 87.0322C88.9133 117.961 113.986 143.034 144.915 143.034Z" fill="url(#paint1_radial_106_603)"/>
    <g filter="url(#filter0_dii_106_603)">
        <path d="M95.2455 316.331L62.0606 361.727C53.8721 372.932 38.2134 375.374 27.0081 367.186C15.8028 358.997 13.3605 343.339 21.549 332.133L54.7339 286.738C62.9224 275.532 78.5812 273.09 89.7865 281.278C100.992 289.323 103.434 305.126 95.2455 316.331Z" fill="#29A4FD"/>
    </g>
    <g filter="url(#filter1_dii_106_603)">
        <path d="M186.125 316.331L152.94 361.727C144.752 372.932 129.093 375.374 117.888 367.186C106.683 358.997 104.24 343.339 112.429 332.133L145.614 286.738C153.802 275.532 169.461 273.09 180.666 281.278C191.872 289.323 194.314 305.126 186.125 316.331Z" fill="#29A4FD"/>
    </g>
    <g filter="url(#filter2_dii_106_603)">
        <path d="M277.005 316.331L243.82 361.727C235.632 372.932 219.973 375.374 208.768 367.186C197.562 358.997 195.12 343.339 203.309 332.133L236.493 286.738C244.682 275.532 260.341 273.09 271.546 281.278C282.751 289.323 285.194 305.126 277.005 316.331Z" fill="#29A4FD"/>
    </g>
    <g filter="url(#filter3_i_106_603)">
        <path d="M350.872 35.4077C301.662 -12.5541 222.927 -11.7224 174.966 37.487C161.051 51.6766 151.382 68.3307 145.548 86.0885C145.495 86.2509 145.298 86.3136 145.16 86.2121C139.829 82.2802 133.966 78.8885 127.835 76.3C116.469 71.0325 103.855 68.1216 90.5472 68.1216C41.0606 68.1216 1 108.182 1 157.669C1 178.739 8.34675 198.145 20.5451 213.532C37.0407 235.156 62.9622 249.018 92.2106 249.018C127.42 249.018 228.611 249.018 268.117 249.018C307.207 249.018 341.723 229.75 362.793 200.224C400.497 150.876 396.338 79.9041 350.872 35.4077Z" fill="#D3E9FF"/>
    </g>
    <g filter="url(#filter4_ii_106_603)">
        <path d="M350.872 35.4077C301.662 -12.5541 222.927 -11.7224 174.966 37.487C161.051 51.6766 151.382 68.3307 145.548 86.0885C145.495 86.2509 145.298 86.3136 145.16 86.2121C139.829 82.2802 133.966 78.8885 127.835 76.3C116.469 71.0325 103.855 68.1216 90.5472 68.1216C41.0606 68.1216 1 108.182 1 157.669C1 178.739 8.34675 198.145 20.5451 213.532C37.0407 235.156 62.9622 249.018 92.2106 249.018C127.42 249.018 228.611 249.018 268.117 249.018C307.207 249.018 341.723 229.75 362.793 200.224C400.497 150.876 396.338 79.9041 350.872 35.4077Z" fill="#D3E9FF"/>
        <path d="M350.872 35.4077C301.662 -12.5541 222.927 -11.7224 174.966 37.487C161.051 51.6766 151.382 68.3307 145.548 86.0885C145.495 86.2509 145.298 86.3136 145.16 86.2121C139.829 82.2802 133.966 78.8885 127.835 76.3C116.469 71.0325 103.855 68.1216 90.5472 68.1216C41.0606 68.1216 1 108.182 1 157.669C1 178.739 8.34675 198.145 20.5451 213.532C37.0407 235.156 62.9622 249.018 92.2106 249.018C127.42 249.018 228.611 249.018 268.117 249.018C307.207 249.018 341.723 229.75 362.793 200.224C400.497 150.876 396.338 79.9041 350.872 35.4077Z" fill="url(#paint2_radial_106_603)"/>
        <path d="M350.872 35.4077C301.662 -12.5541 222.927 -11.7224 174.966 37.487C161.051 51.6766 151.382 68.3307 145.548 86.0885C145.495 86.2509 145.298 86.3136 145.16 86.2121C139.829 82.2802 133.966 78.8885 127.835 76.3C116.469 71.0325 103.855 68.1216 90.5472 68.1216C41.0606 68.1216 1 108.182 1 157.669C1 178.739 8.34675 198.145 20.5451 213.532C37.0407 235.156 62.9622 249.018 92.2106 249.018C127.42 249.018 228.611 249.018 268.117 249.018C307.207 249.018 341.723 229.75 362.793 200.224C400.497 150.876 396.338 79.9041 350.872 35.4077Z" fill="url(#paint3_radial_106_603)"/>
        <path d="M350.872 35.4077C301.662 -12.5541 222.927 -11.7224 174.966 37.487C161.051 51.6766 151.382 68.3307 145.548 86.0885C145.495 86.2509 145.298 86.3136 145.16 86.2121C139.829 82.2802 133.966 78.8885 127.835 76.3C116.469 71.0325 103.855 68.1216 90.5472 68.1216C41.0606 68.1216 1 108.182 1 157.669C1 178.739 8.34675 198.145 20.5451 213.532C37.0407 235.156 62.9622 249.018 92.2106 249.018C127.42 249.018 228.611 249.018 268.117 249.018C307.207 249.018 341.723 229.75 362.793 200.224C400.497 150.876 396.338 79.9041 350.872 35.4077Z" fill="url(#paint4_radial_106_603)"/>
        <path d="M350.872 35.4077C301.662 -12.5541 222.927 -11.7224 174.966 37.487C161.051 51.6766 151.382 68.3307 145.548 86.0885C145.495 86.2509 145.298 86.3136 145.16 86.2121C139.829 82.2802 133.966 78.8885 127.835 76.3C116.469 71.0325 103.855 68.1216 90.5472 68.1216C41.0606 68.1216 1 108.182 1 157.669C1 178.739 8.34675 198.145 20.5451 213.532C37.0407 235.156 62.9622 249.018 92.2106 249.018C127.42 249.018 228.611 249.018 268.117 249.018C307.207 249.018 341.723 229.75 362.793 200.224C400.497 150.876 396.338 79.9041 350.872 35.4077Z" fill="url(#paint5_radial_106_603)"/>
    </g>
    <defs>
        <filter id="filter0_dii_106_603" x="-3.29398" y="256.435" width="123.383" height="135.593" filterUnits="userSpaceOnUse" color-interpolation-filters="sRGB">
            <feFlood flood-opacity="0" result="BackgroundImageFix"/>
            <feColorMatrix in="SourceAlpha" type="matrix" values="0 0 0 0 0 0 0 0 0 0 0 0 0 0 0 0 0 0 127 0" result="hardAlpha"/>
            <feOffset/>
            <feGaussianBlur stdDeviation="10"/>
            <feComposite in2="hardAlpha" operator="out"/>
            <feColorMatrix type="matrix" values="0 0 0 0 0.372222 0 0 0 0 0.736452 0 0 0 0 1 0 0 0 0.25 0"/>
            <feBlend mode="normal" in2="BackgroundImageFix" result="effect1_dropShadow_106_603"/>
            <feBlend mode="normal" in="SourceGraphic" in2="effect1_dropShadow_106_603" result="shape"/>
            <feColorMatrix in="SourceAlpha" type="matrix" values="0 0 0 0 0 0 0 0 0 0 0 0 0 0 0 0 0 0 127 0" result="hardAlpha"/>
            <feOffset dx="4" dy="4"/>
            <feGaussianBlur stdDeviation="6"/>
            <feComposite in2="hardAlpha" operator="arithmetic" k2="-1" k3="1"/>
            <feColorMatrix type="matrix" values="0 0 0 0 1 0 0 0 0 1 0 0 0 0 1 0 0 0 0.55 0"/>
            <feBlend mode="overlay" in2="shape" result="effect2_innerShadow_106_603"/>
            <feColorMatrix in="SourceAlpha" type="matrix" values="0 0 0 0 0 0 0 0 0 0 0 0 0 0 0 0 0 0 127 0" result="hardAlpha"/>
            <feOffset dx="-4" dy="-4"/>
            <feGaussianBlur stdDeviation="10"/>
            <feComposite in2="hardAlpha" operator="arithmetic" k2="-1" k3="1"/>
            <feColorMatrix type="matrix" values="0 0 0 0 0 0 0 0 0 0 0 0 0 0 0 0 0 0 0.25 0"/>
            <feBlend mode="overlay" in2="effect2_innerShadow_106_603" result="effect3_innerShadow_106_603"/>
        </filter>
        <filter id="filter1_dii_106_603" x="87.5858" y="256.435" width="123.383" height="135.593" filterUnits="userSpaceOnUse" color-interpolation-filters="sRGB">
            <feFlood flood-opacity="0" result="BackgroundImageFix"/>
            <feColorMatrix in="SourceAlpha" type="matrix" values="0 0 0 0 0 0 0 0 0 0 0 0 0 0 0 0 0 0 127 0" result="hardAlpha"/>
            <feOffset/>
            <feGaussianBlur stdDeviation="10"/>
            <feComposite in2="hardAlpha" operator="out"/>
            <feColorMatrix type="matrix" values="0 0 0 0 0.372222 0 0 0 0 0.736452 0 0 0 0 1 0 0 0 0.25 0"/>
            <feBlend mode="normal" in2="BackgroundImageFix" result="effect1_dropShadow_106_603"/>
            <feBlend mode="normal" in="SourceGraphic" in2="effect1_dropShadow_106_603" result="shape"/>
            <feColorMatrix in="SourceAlpha" type="matrix" values="0 0 0 0 0 0 0 0 0 0 0 0 0 0 0 0 0 0 127 0" result="hardAlpha"/>
            <feOffset dx="4" dy="4"/>
            <feGaussianBlur stdDeviation="6"/>
            <feComposite in2="hardAlpha" operator="arithmetic" k2="-1" k3="1"/>
            <feColorMatrix type="matrix" values="0 0 0 0 1 0 0 0 0 1 0 0 0 0 1 0 0 0 0.55 0"/>
            <feBlend mode="overlay" in2="shape" result="effect2_innerShadow_106_603"/>
            <feColorMatrix in="SourceAlpha" type="matrix" values="0 0 0 0 0 0 0 0 0 0 0 0 0 0 0 0 0 0 127 0" result="hardAlpha"/>
            <feOffset dx="-4" dy="-4"/>
            <feGaussianBlur stdDeviation="10"/>
            <feComposite in2="hardAlpha" operator="arithmetic" k2="-1" k3="1"/>
            <feColorMatrix type="matrix" values="0 0 0 0 0 0 0 0 0 0 0 0 0 0 0 0 0 0 0.25 0"/>
            <feBlend mode="overlay" in2="effect2_innerShadow_106_603" result="effect3_innerShadow_106_603"/>
        </filter>
        <filter id="filter2_dii_106_603" x="178.466" y="256.435" width="123.383" height="135.593" filterUnits="userSpaceOnUse" color-interpolation-filters="sRGB">
            <feFlood flood-opacity="0" result="BackgroundImageFix"/>
            <feColorMatrix in="SourceAlpha" type="matrix" values="0 0 0 0 0 0 0 0 0 0 0 0 0 0 0 0 0 0 127 0" result="hardAlpha"/>
            <feOffset/>
            <feGaussianBlur stdDeviation="10"/>
            <feComposite in2="hardAlpha" operator="out"/>
            <feColorMatrix type="matrix" values="0 0 0 0 0.372222 0 0 0 0 0.736452 0 0 0 0 1 0 0 0 0.25 0"/>
            <feBlend mode="normal" in2="BackgroundImageFix" result="effect1_dropShadow_106_603"/>
            <feBlend mode="normal" in="SourceGraphic" in2="effect1_dropShadow_106_603" result="shape"/>
            <feColorMatrix in="SourceAlpha" type="matrix" values="0 0 0 0 0 0 0 0 0 0 0 0 0 0 0 0 0 0 127 0" result="hardAlpha"/>
            <feOffset dx="4" dy="4"/>
            <feGaussianBlur stdDeviation="6"/>
            <feComposite in2="hardAlpha" operator="arithmetic" k2="-1" k3="1"/>
            <feColorMatrix type="matrix" values="0 0 0 0 1 0 0 0 0 1 0 0 0 0 1 0 0 0 0.55 0"/>
            <feBlend mode="overlay" in2="shape" result="effect2_innerShadow_106_603"/>
            <feColorMatrix in="SourceAlpha" type="matrix" values="0 0 0 0 0 0 0 0 0 0 0 0 0 0 0 0 0 0 127 0" result="hardAlpha"/>
            <feOffset dx="-4" dy="-4"/>
            <feGaussianBlur stdDeviation="10"/>
            <feComposite in2="hardAlpha" operator="arithmetic" k2="-1" k3="1"/>
            <feColorMatrix type="matrix" values="0 0 0 0 0 0 0 0 0 0 0 0 0 0 0 0 0 0 0.25 0"/>
            <feBlend mode="overlay" in2="effect2_innerShadow_106_603" result="effect3_innerShadow_106_603"/>
        </filter>
        <filter id="filter3_i_106_603" x="1" y="0" width="387.313" height="249.018" filterUnits="userSpaceOnUse" color-interpolation-filters="sRGB">
            <feFlood flood-opacity="0" result="BackgroundImageFix"/>
            <feBlend mode="normal" in="SourceGraphic" in2="BackgroundImageFix" result="shape"/>
            <feColorMatrix in="SourceAlpha" type="matrix" values="0 0 0 0 0 0 0 0 0 0 0 0 0 0 0 0 0 0 127 0" result="hardAlpha"/>
            <feOffset/>
            <feGaussianBlur stdDeviation="2"/>
            <feComposite in2="hardAlpha" operator="arithmetic" k2="-1" k3="1"/>
            <feColorMatrix type="matrix" values="0 0 0 0 0.701961 0 0 0 0 0.698039 0 0 0 0 0.992157 0 0 0 1 0"/>
            <feBlend mode="normal" in2="shape" result="effect1_innerShadow_106_603"/>
        </filter>
        <filter id="filter4_ii_106_603" x="1" y="0" width="387.313" height="249.018" filterUnits="userSpaceOnUse" color-interpolation-filters="sRGB">
            <feFlood flood-opacity="0" result="BackgroundImageFix"/>
            <feBlend mode="normal" in="SourceGraphic" in2="BackgroundImageFix" result="shape"/>
            <feColorMatrix in="SourceAlpha" type="matrix" values="0 0 0 0 0 0 0 0 0 0 0 0 0 0 0 0 0 0 127 0" result="hardAlpha"/>
            <feOffset/>
            <feGaussianBlur stdDeviation="3.5"/>
            <feComposite in2="hardAlpha" operator="arithmetic" k2="-1" k3="1"/>
            <feColorMatrix type="matrix" values="0 0 0 0 0.698039 0 0 0 0 0.845098 0 0 0 0 0.992157 0 0 0 1 0"/>
            <feBlend mode="normal" in2="shape" result="effect1_innerShadow_106_603"/>
            <feColorMatrix in="SourceAlpha" type="matrix" values="0 0 0 0 0 0 0 0 0 0 0 0 0 0 0 0 0 0 127 0" result="hardAlpha"/>
            <feOffset/>
            <feGaussianBlur stdDeviation="1.25"/>
            <feComposite in2="hardAlpha" operator="arithmetic" k2="-1" k3="1"/>
            <feColorMatrix type="matrix" values="0 0 0 0 0.698039 0 0 0 0 0.845098 0 0 0 0 0.992157 0 0 0 1 0"/>
            <feBlend mode="normal" in2="effect1_innerShadow_106_603" result="effect2_innerShadow_106_603"/>
        </filter>
        <radialGradient id="paint0_radial_106_603" cx="0" cy="0" r="1" gradientUnits="userSpaceOnUse" gradientTransform="translate(141.089 77.4658) rotate(-110.468) scale(49.5642 48.1397)">
            <stop offset="0.30655" stop-color="#CDE6FF"/>
            <stop offset="1" stop-color="#B6D8FA"/>
        </radialGradient>
        <radialGradient id="paint1_radial_106_603" cx="0" cy="0" r="1" gradientUnits="userSpaceOnUse" gradientTransform="translate(162.105 65.0138) rotate(-148.811) scale(20.0949 66.8224)">
            <stop offset="0.401187" stop-color="#B7DBFF"/>
            <stop offset="1" stop-color="#B7DBFF" stop-opacity="0"/>
        </radialGradient>
        <radialGradient id="paint2_radial_106_603" cx="0" cy="0" r="1" gradientUnits="userSpaceOnUse" gradientTransform="translate(200.844 156.559) rotate(-106.955) scale(180.093 101.184)">
            <stop stop-color="#CCE6FF"/>
            <stop offset="1" stop-color="#CCE6FF" stop-opacity="0"/>
        </radialGradient>
        <radialGradient id="paint3_radial_106_603" cx="0" cy="0" r="1" gradientUnits="userSpaceOnUse" gradientTransform="translate(365.756 71.4775) rotate(147.006) scale(167.817 187.453)">
            <stop offset="0.189911" stop-color="#F0F8FF"/>
            <stop offset="1" stop-color="#F0F8FF" stop-opacity="0"/>
        </radialGradient>
        <radialGradient id="paint4_radial_106_603" cx="0" cy="0" r="1" gradientUnits="userSpaceOnUse" gradientTransform="translate(98.9559 116.644) rotate(147.319) scale(132.283 161.197)">
            <stop stop-color="#F0F8FF"/>
            <stop offset="0.695905" stop-color="#F0F8FF" stop-opacity="0"/>
        </radialGradient>
        <radialGradient id="paint5_radial_106_603" cx="0" cy="0" r="1" gradientUnits="userSpaceOnUse" gradientTransform="translate(129.417 60.9735) rotate(71.9061) scale(111.609 41.6085)">
            <stop stop-color="#F0F8FF"/>
            <stop offset="1" stop-color="#F0F8FF" stop-opacity="0"/>
        </radialGradient>
    </defs>
</svg>
